<svg width="20" height="20" viewBox="0 0 20 20" fill="none" xmlns="http://www.w3.org/2000/svg">
<path d="M2.5 9.98489C2.5 9.64232 2.62242 9.34005 2.86725 9.07809C3.09325 8.81612 3.38516 8.68514 3.74299 8.68514L13.3473 8.68514L11.0591 6.23678C10.8331 5.97481 10.7201 5.66247 10.7201 5.29975C10.7201 4.93703 10.8331 4.62468 11.0591 4.36272C11.2851 4.12091 11.577 4 11.9348 4C12.2361 4 12.5092 4.12091 12.7541 4.36272L17.1893 9.10831C17.3964 9.37028 17.5 9.66247 17.5 9.98489C17.5 10.3275 17.3964 10.6297 17.1893 10.8917L12.7541 15.6373C12.5092 15.8791 12.2361 16 11.9348 16C11.577 16 11.2851 15.8791 11.0591 15.6373C10.8331 15.3955 10.7201 15.0831 10.7201 14.7003C10.7201 14.3375 10.8331 14.0252 11.0591 13.7632L13.3473 11.3149L3.74299 11.3149C3.38516 11.3149 3.09324 11.1839 2.86725 10.9219C2.62242 10.6801 2.5 10.3678 2.5 9.98489Z" fill="#30312B"/>
</svg>
