<svg width="20" height="20" viewBox="0 0 20 20" fill="none" xmlns="http://www.w3.org/2000/svg">
<g clip-path="url(#clip0_55_376)">
<path d="M4.64865 15.3286C4.36204 15.042 4.21119 14.6951 4.19611 14.2878C4.21119 13.8805 4.36958 13.526 4.67128 13.2243L7.907 9.98857L4.67128 6.75285C4.38467 6.46623 4.23382 6.11928 4.21873 5.71199C4.23382 5.30469 4.38467 4.95774 4.67128 4.67113C4.98807 4.35434 5.34256 4.19595 5.73477 4.19595C6.14206 4.21104 6.48902 4.36188 6.77563 4.6485L10.0114 7.88422L13.2471 4.6485C13.5337 4.36188 13.8806 4.22612 14.2879 4.2412C14.7103 4.2412 15.0573 4.37697 15.3288 4.6485C15.6456 4.96528 15.7964 5.32732 15.7813 5.73461C15.7813 6.12682 15.638 6.46623 15.3514 6.75285L12.1157 9.98857L15.3288 13.2017C15.6305 13.5034 15.7738 13.8579 15.7587 14.2652C15.7738 14.6724 15.6305 15.0269 15.3288 15.3286C15.0422 15.6153 14.6877 15.7586 14.2653 15.7586C13.8731 15.7586 13.5261 15.6077 13.2244 15.306L10.0114 12.0929L6.77563 15.3286C6.47393 15.6303 6.11944 15.7887 5.71214 15.8038C5.31993 15.8038 4.96544 15.6454 4.64865 15.3286Z" fill="#30312B"/>
</g>
<defs>
<clipPath id="clip0_55_376">
<rect width="20" height="20" fill="white"/>
</clipPath>
</defs>
</svg>
