<svg width="20" height="20" viewBox="0 0 20 20" fill="none" xmlns="http://www.w3.org/2000/svg">
<path d="M9.98399 17.552C9.57866 17.552 9.22666 17.4133 8.92799 17.136C8.65066 16.8373 8.51199 16.4747 8.51199 16.048V11.472H3.93599C3.53066 11.472 3.17866 11.3333 2.87999 11.056C2.60266 10.7573 2.46399 10.4053 2.46399 10C2.46399 9.552 2.60266 9.18933 2.87999 8.912C3.17866 8.63467 3.53066 8.496 3.93599 8.496H8.51199V3.92C8.51199 3.51466 8.66132 3.17333 8.95999 2.896C9.25866 2.59733 9.59999 2.448 9.98399 2.448C10.432 2.448 10.7947 2.59733 11.072 2.896C11.3493 3.17333 11.488 3.51466 11.488 3.92V8.496H16.032C16.4587 8.496 16.8107 8.64533 17.088 8.944C17.3867 9.22133 17.536 9.57333 17.536 10C17.536 10.4053 17.3867 10.7573 17.088 11.056C16.8107 11.3333 16.4587 11.472 16.032 11.472H11.488V16.048C11.488 16.4747 11.3493 16.8373 11.072 17.136C10.7947 17.4133 10.432 17.552 9.98399 17.552Z" fill="#30312B"/>
</svg>
